# xmcd
#
# Track frame offsets:
#	150
#	14997
#	31602
#	51099
#	68568
#	85192
#	104487
#	122941
#	138985
#	162909
#	182441
#	199375
#	217283
#	236987
#	258376
#	276407
#
# Disc length: 3879
#
# Revision: 3
# Processed by: cddbd v1.5.1PL0 Copyright (c) Steve Scherf et al.
# Submitted via: CDex 1.50
# Normalized: r2:TRMNUM
#
DISCID=f50f2510
DTITLE=BoA - No.1
DYEAR=2002
DGENRE=Pop
TTITLE0=NO.1
TTITLE1=My Sweetie
TTITLE2=waiting..
TTITLE3=Tragic
TTITLE4=shy Love
TTITLE5=Day
TTITLE6=dear my love..
TTITLE7=Beat it!
TTITLE8=P.O.L(Power Of Love)
TTITLE9=My Genie
TTITLE10=Pain-Love
TTITLE11=Happiness Lies
TTITLE12=Realize(stay with me)
TTITLE13=Azalea
TTITLE14=Listen to my Heart
TTITLE15=NO.1(English Ver.)
EXTD=YEAR: 2002
EXTT0=
EXTT1=
EXTT2=
EXTT3=
EXTT4=
EXTT5=
EXTT6=
EXTT7=
EXTT8=
EXTT9=
EXTT10=
EXTT11=
EXTT12=
EXTT13=
EXTT14=
EXTT15=
PLAYORDER=
